<svg width="70" height="28" viewBox="0 0 70 28" fill="none" xmlns="http://www.w3.org/2000/svg">
<g clip-path="url(#clip0_1867_5119)">
<path d="M18.8194 17.8196C19.2032 18.0564 19.2027 18.6062 18.8184 18.8423L10.1505 24.1673C9.95133 24.2896 9.69859 24.2896 9.49946 24.1673L0.831528 18.8423C0.447228 18.6062 0.446679 18.0564 0.830502 17.8196L9.49848 12.4713C9.6981 12.3481 9.95182 12.3481 10.1514 12.4713L18.8194 17.8196Z" fill="url(#paint0_linear_1867_5119)"/>
<path d="M18.8194 13.4817C19.2032 13.7185 19.2027 14.2683 18.8184 14.5045L10.1505 19.8294C9.95133 19.9517 9.69859 19.9517 9.49946 19.8294L0.831528 14.5045C0.447228 14.2683 0.446679 13.7185 0.830502 13.4817L9.49848 8.13343C9.6981 8.01021 9.95182 8.01021 10.1514 8.13343L18.8194 13.4817Z" fill="url(#paint1_linear_1867_5119)" fill-opacity="0.8"/>
<path d="M18.8194 9.14277C19.2032 9.37963 19.2027 9.92949 18.8184 10.1656L10.1505 15.4905C9.95133 15.6128 9.69859 15.6128 9.49946 15.4905L0.831528 10.1656C0.447228 9.92949 0.446679 9.37963 0.830502 9.14277L9.49848 3.79453C9.6981 3.67136 9.95182 3.67136 10.1514 3.79453L18.8194 9.14277Z" fill="url(#paint2_linear_1867_5119)"/>
<path d="M48.9338 20.3666H50.5303L45.8642 9.14251L45.0677 11.0579L46.8536 15.358H43.474L42.9828 16.5951H47.3674L48.9338 20.3666Z" fill="white"/>
<path d="M39.974 20.3666H38.3775L43.6582 7.66406H45.2496L39.974 20.3666Z" fill="white"/>
<path d="M30.2734 20.3968H28.6758L33.9604 11.5865H35.553L30.2734 20.3968Z" fill="white"/>
<path d="M33.9553 20.3968H35.553L30.2683 11.5865H28.6758L33.9553 20.3968Z" fill="white"/>
<path d="M54.9565 7.66406H53.36V20.3968H54.9565V7.66406Z" fill="white"/>
<path fill-rule="evenodd" clip-rule="evenodd" d="M59.1933 9.23303H63.86C66.3696 9.23303 68.4039 11.2323 68.4039 13.6985V14.3623C68.4039 16.8286 66.3696 18.8279 63.86 18.8279H60.7898V10.7416H59.1933V20.3968H63.86C67.2513 20.3968 70.0003 17.6951 70.0003 14.3623V13.6985C70.0003 10.3658 67.2513 7.66406 63.86 7.66406H59.1933V9.23303Z" fill="white"/>
</g>
<defs>
<linearGradient id="paint0_linear_1867_5119" x1="18.7592" y1="18.3448" x2="0.737243" y2="18.3448" gradientUnits="userSpaceOnUse">
<stop stop-color="#00EFC3"/>
<stop offset="1" stop-color="#00EFC3" stop-opacity="0.05"/>
</linearGradient>
<linearGradient id="paint1_linear_1867_5119" x1="18.739" y1="14.0142" x2="0.70118" y2="14.0142" gradientUnits="userSpaceOnUse">
<stop stop-color="#35BEE0"/>
<stop offset="1" stop-color="#35BEE0" stop-opacity="0.6"/>
</linearGradient>
<linearGradient id="paint2_linear_1867_5119" x1="18.9218" y1="9.64176" x2="0.00038695" y2="9.64176" gradientUnits="userSpaceOnUse">
<stop stop-color="#6C89FF" stop-opacity="0.05"/>
<stop offset="1" stop-color="#6C89FF"/>
</linearGradient>
<clipPath id="clip0_1867_5119">
<rect width="70" height="28" fill="white"/>
</clipPath>
</defs>
</svg>
