<svg width="1001" height="400" viewBox="0 0 1001 400" fill="none" xmlns="http://www.w3.org/2000/svg">
<g clip-path="url(#clip0_2546_998)">
<path d="M269.046 254.566C274.533 257.949 274.525 265.804 269.032 269.177L145.11 345.247C142.263 346.995 138.65 346.995 135.803 345.247L11.8822 269.177C6.38809 265.804 6.38023 257.949 11.8676 254.566L135.789 178.162C138.643 176.403 142.27 176.403 145.124 178.162L269.046 254.566Z" fill="url(#paint0_linear_2546_998)"/>
<path d="M269.046 192.589C274.533 195.972 274.525 203.827 269.032 207.2L145.11 283.271C142.263 285.018 138.65 285.018 135.803 283.271L11.8822 207.2C6.38809 203.827 6.38023 195.972 11.8676 192.589L135.789 116.185C138.643 114.425 142.27 114.425 145.124 116.185L269.046 192.589Z" fill="url(#paint1_linear_2546_998)" fill-opacity="0.8"/>
<path d="M269.046 130.614C274.533 133.997 274.525 141.853 269.032 145.225L145.11 221.296C142.263 223.043 138.65 223.043 135.803 221.296L11.8822 145.225C6.38809 141.853 6.38023 133.997 11.8676 130.614L135.789 54.2103C138.643 52.4507 142.27 52.4507 145.124 54.2103L269.046 130.614Z" fill="url(#paint2_linear_2546_998)"/>
<path d="M699.577 290.948H722.401L655.693 130.604L644.305 157.966L669.838 219.397H621.521L614.498 237.069H677.183L699.577 290.948Z" fill="#2E346D"/>
<path d="M571.484 290.948H548.659L624.155 109.483H646.905L571.484 290.948Z" fill="#2E346D"/>
<path d="M432.799 291.379H409.958L485.51 165.517H508.278L432.799 291.379Z" fill="#2E346D"/>
<path d="M485.437 291.379H508.278L432.726 165.517H409.958L485.437 291.379Z" fill="#2E346D"/>
<path d="M785.68 109.483H762.856V291.379H785.68V109.483Z" fill="#2E346D"/>
<path fill-rule="evenodd" clip-rule="evenodd" d="M846.252 131.897H912.969C948.847 131.897 977.93 160.458 977.93 195.69V205.172C977.93 240.404 948.847 268.966 912.969 268.966H869.076V153.448H846.252V291.379H912.969C961.453 291.379 1000.75 252.783 1000.75 205.172V195.69C1000.75 148.079 961.453 109.483 912.969 109.483H846.252V131.897Z" fill="#2E346D"/>
</g>
<defs>
<linearGradient id="paint0_linear_2546_998" x1="268.185" y1="262.069" x2="10.5343" y2="262.069" gradientUnits="userSpaceOnUse">
<stop stop-color="#00EFC3"/>
<stop offset="1" stop-color="#00EFC3" stop-opacity="0.05"/>
</linearGradient>
<linearGradient id="paint1_linear_2546_998" x1="267.897" y1="200.196" x2="10.0187" y2="200.196" gradientUnits="userSpaceOnUse">
<stop stop-color="#35BEE0"/>
<stop offset="1" stop-color="#35BEE0" stop-opacity="0.6"/>
</linearGradient>
<linearGradient id="paint2_linear_2546_998" x1="270.51" y1="137.742" x2="-0.000182126" y2="137.742" gradientUnits="userSpaceOnUse">
<stop stop-color="#6C89FF" stop-opacity="0.05"/>
<stop offset="1" stop-color="#6C89FF"/>
</linearGradient>
<clipPath id="clip0_2546_998">
<rect width="1000.75" height="400" fill="white"/>
</clipPath>
</defs>
</svg>
